# xmcd
#
# Track frame offsets: 
#        150
#        15059
#        33613
#        47121
#        60104
#        77111
#        90851
#        103793
#        116738
#        131271
#        145647
#        167711
#        179990
#        193025
#        208554
#        218237
#        230546
#        242968
#        252756
#        267593
#        279189
#        290602
#        300571
#        312244
#
# Disc length: 4439 seconds
#
# Revision: 0
# Processed by: cddbd v1.5.2PL0 Copyright (c) Steve Scherf et al.
# Submitted via: ExactAudioCopyFreeDBPlugin 1.0
#
DISCID=51115518
DTITLE=Various Artist - Preppy Deluxe
DYEAR=2000
DGENRE=Beach
TTITLE0=General Johnson and The Chairmen of The Board - Carolina Girls
TTITLE1=Band Of Oz - Shama Lama Ding Dong
TTITLE2=The Globetrotters - Rainy Day Bells
TTITLE3=The Embers - Did You Boogie With Your Baby
TTITLE4=Shagtime - Mr. Beach
TTITLE5=Band Of Oz - Ocean Boulevard
TTITLE6=Buddy Causey - Hey Baby - 39-21-46 - I've Been Hurt
TTITLE7=The Foundations - Build Me Up Buttercup
TTITLE8=The Trammps - Hold Back The Night
TTITLE9=The Tams - Tams Medley
TTITLE10=First Class - Beach Baby
TTITLE11=Edison Lighthouse - Love Grows Where My Rosemary Goes
TTITLE12=White Plains - My Baby Loves Lovin'
TTITLE13=Mungo Jerry - In The Summertime
TTITLE14=The Champs - Tequila
TTITLE15=The Archies - Sugar Sugar
TTITLE16=Lloyd Price - Stagger Lee
TTITLE17=The Swingin' Medallions - Double Shot (Of My Babys Love) (Wor
TTITLE17=st Morning After Version)
TTITLE18=Bill Haley And The Comets - Shake Rattle And Roll
TTITLE19=Chubby Checker - The Twist
TTITLE20=The Troggs - Wild Thing
TTITLE21=Bill Haley And The Comets - Rock Around The Clock
TTITLE22=Doug Clark And The Hotnuts - Baby Let Me Bang Your Box
TTITLE23=The Legendary Dukes - Shout
EXTD=
EXTT0=
EXTT1=
EXTT2=
EXTT3=
EXTT4=
EXTT5=
EXTT6=
EXTT7=
EXTT8=
EXTT9=
EXTT10=
EXTT11=
EXTT12=
EXTT13=
EXTT14=
EXTT15=
EXTT16=
EXTT17=
EXTT18=
EXTT19=
EXTT20=
EXTT21=
EXTT22=
EXTT23=
PLAYORDER=
